<svg width="93" height="24" viewBox="0 0 93 24" fill="none" xmlns="http://www.w3.org/2000/svg">
<path d="M57.3129 8.38162C57.3429 8.38133 57.3429 8.38133 57.3736 8.38103C57.4403 8.38056 57.507 8.38114 57.5737 8.38172C57.6217 8.3816 57.6697 8.38141 57.7177 8.38117C57.8479 8.38071 57.978 8.38117 58.1082 8.38183C58.2447 8.38238 58.3812 8.38218 58.5177 8.38208C58.7471 8.38204 58.9765 8.38258 59.2059 8.38349C59.4704 8.38452 59.735 8.38469 59.9995 8.38439C60.2546 8.38411 60.5096 8.38439 60.7647 8.38494C60.8729 8.38516 60.9812 8.38521 61.0894 8.3851C61.2172 8.38501 61.345 8.38541 61.4728 8.38618C61.5195 8.38639 61.5662 8.38643 61.6128 8.3863C62.1324 8.385 62.5418 8.50839 62.9211 8.86966C63.2834 9.23961 63.4455 9.72624 63.4445 10.2301C63.4445 10.2558 63.4446 10.2816 63.4446 10.3081C63.4447 10.392 63.4445 10.4758 63.4443 10.5596C63.4442 10.5882 63.4442 10.6167 63.4442 10.6461C63.4435 10.9885 63.4425 11.331 63.4345 11.6733C63.4337 11.7077 63.433 11.7421 63.4325 11.7765C63.4221 12.3603 63.2471 12.8783 62.8298 13.3096C62.7235 13.4072 62.6075 13.4888 62.486 13.5673C62.528 13.6867 62.5955 13.7864 62.6651 13.8918C62.6782 13.9118 62.6913 13.9318 62.7048 13.9524C62.749 14.02 62.7935 14.0876 62.8379 14.1551C62.8714 14.206 62.9049 14.257 62.9385 14.308C62.9555 14.334 62.9726 14.3599 62.9902 14.3867C63.0248 14.4393 63.0593 14.4921 63.0938 14.5448C63.1685 14.659 63.2434 14.7728 63.3216 14.8848C63.5272 15.1828 63.5272 15.1828 63.5066 15.3552C63.4834 15.4298 63.4504 15.4751 63.3909 15.5265C63.3132 15.5517 63.2571 15.5549 63.1756 15.5564C63.1325 15.5572 63.1325 15.5572 63.0886 15.5581C63.0419 15.5588 63.0419 15.5588 62.9943 15.5596C62.9462 15.5604 62.9462 15.5604 62.8971 15.5613C62.829 15.5625 62.7609 15.5636 62.6928 15.5646C62.6063 15.566 62.5199 15.5675 62.4334 15.5692C62.3502 15.5707 62.267 15.572 62.1837 15.5734C62.1531 15.5739 62.1224 15.5745 62.0908 15.5751C61.5268 15.583 61.5268 15.583 61.3801 15.4775C61.2499 15.3317 61.1551 15.1628 61.058 14.9954C61.0335 14.9536 61.009 14.9117 60.9844 14.87C60.9673 14.8407 60.9501 14.8115 60.933 14.7822C60.8393 14.6226 60.7447 14.4635 60.6495 14.3047C60.6308 14.2735 60.6122 14.2423 60.5936 14.2111C60.5675 14.1672 60.5413 14.1234 60.515 14.0796C60.5 14.0545 60.485 14.0295 60.4696 14.0036C60.391 13.8765 60.391 13.8765 60.2741 13.7877C60.2263 13.7853 60.1783 13.7846 60.1304 13.7845C60.1003 13.7845 60.0702 13.7844 60.0391 13.7843C59.9902 13.7844 59.9902 13.7844 59.9402 13.7845C59.9065 13.7844 59.8728 13.7844 59.8392 13.7844C59.7686 13.7843 59.698 13.7844 59.6274 13.7845C59.5367 13.7847 59.446 13.7846 59.3554 13.7844C59.2858 13.7843 59.2163 13.7844 59.1468 13.7844C59.097 13.7845 59.0473 13.7844 58.9975 13.7843C58.9675 13.7844 58.9375 13.7845 58.9065 13.7845C58.8799 13.7846 58.8533 13.7846 58.826 13.7846C58.7672 13.7811 58.7672 13.7811 58.7409 13.8122C58.7379 13.8491 58.7367 13.8861 58.7361 13.9231C58.7357 13.9467 58.7353 13.9704 58.7348 13.9948C58.7345 14.0206 58.7342 14.0464 58.7338 14.073C58.7334 14.0995 58.7329 14.126 58.7324 14.1533C58.7309 14.2386 58.7296 14.3239 58.7283 14.4091C58.727 14.4935 58.7257 14.5779 58.7242 14.6624C58.7233 14.7149 58.7225 14.7675 58.7218 14.8201C58.7132 15.3163 58.7132 15.3163 58.5901 15.453C58.4725 15.5617 58.3722 15.5783 58.2142 15.579C58.1781 15.5793 58.1781 15.5793 58.1412 15.5795C58.1026 15.5795 58.1026 15.5795 58.0632 15.5796C58.0365 15.5797 58.0097 15.5797 57.9822 15.5798C57.9257 15.5799 57.8692 15.58 57.8127 15.58C57.7265 15.5801 57.6404 15.5805 57.5542 15.581C57.4992 15.581 57.4443 15.5811 57.3893 15.5811C57.3508 15.5814 57.3508 15.5814 57.3116 15.5816C56.9999 15.5807 56.9999 15.5807 56.8819 15.4876C56.8701 15.4732 56.8584 15.4587 56.8463 15.4438C56.8342 15.4295 56.8221 15.4152 56.8096 15.4004C56.7538 15.314 56.7521 15.2291 56.7522 15.1289C56.7522 15.1026 56.7522 15.0764 56.7522 15.0493C56.7524 15.0202 56.7525 14.9912 56.7527 14.9612C56.7527 14.9301 56.7528 14.899 56.7529 14.8669C56.7546 14.4359 56.7624 14.0049 56.7696 13.574C56.7717 13.4492 56.7737 13.3244 56.7757 13.1995C56.7791 12.9896 56.7826 12.7798 56.786 12.5699C56.79 12.3307 56.7939 12.0916 56.7978 11.8525C56.8016 11.6187 56.8054 11.3849 56.8092 11.1511C56.8108 11.0535 56.8124 10.9558 56.814 10.8581C56.8181 10.6075 56.8224 10.3568 56.827 10.1062C56.8297 9.95482 56.8318 9.80344 56.8337 9.65204C56.8351 9.54351 56.8368 9.43498 56.8385 9.32645C56.8393 9.27436 56.8399 9.22227 56.8404 9.17018C56.8411 9.09787 56.8423 9.02557 56.8436 8.95326C56.8437 8.93195 56.8438 8.91064 56.8439 8.88869C56.8476 8.71784 56.8811 8.58637 57.011 8.46385C57.1062 8.39087 57.1941 8.37929 57.3129 8.38162ZM58.7912 10.2367C58.7591 10.4163 58.7624 10.5958 58.7627 10.7777C58.7627 10.8108 58.7626 10.844 58.7626 10.8771C58.7626 10.9462 58.7626 11.0152 58.7627 11.0843C58.7629 11.173 58.7628 11.2616 58.7627 11.3503C58.7626 11.4185 58.7626 11.4868 58.7627 11.5551C58.7627 11.6037 58.7626 11.6523 58.7625 11.701C58.7626 11.7302 58.7627 11.7595 58.7628 11.7897C58.7628 11.8156 58.7628 11.8415 58.7628 11.8681C58.7593 11.9254 58.7593 11.9254 58.7912 11.951C58.8667 11.9541 58.9417 11.9556 59.0173 11.9561C59.0411 11.9563 59.0648 11.9566 59.0893 11.9568C59.1683 11.9575 59.2473 11.9581 59.3263 11.9585C59.3667 11.9588 59.3667 11.9588 59.4079 11.959C59.5505 11.9598 59.6932 11.9604 59.8358 11.9609C59.9539 11.9613 60.072 11.9622 60.1901 11.9634C60.3326 11.9649 60.475 11.9656 60.6175 11.9659C60.6718 11.9661 60.7261 11.9665 60.7804 11.9673C60.8565 11.9682 60.9326 11.9682 61.0087 11.968C61.0311 11.9685 61.0534 11.969 61.0765 11.9695C61.2191 11.9679 61.2934 11.9382 61.397 11.842C61.51 11.7135 61.4883 11.5387 61.4882 11.3792C61.4883 11.3392 61.4883 11.3392 61.4885 11.2983C61.4886 11.2421 61.4887 11.1858 61.4885 11.1296C61.4885 11.0435 61.4891 10.9575 61.4897 10.8715C61.4898 10.8167 61.4898 10.762 61.4897 10.7073C61.49 10.6816 61.4902 10.6559 61.4904 10.6294C61.4894 10.4657 61.4733 10.3793 61.3546 10.2588C61.2488 10.1931 61.1625 10.199 61.0395 10.2007C61.0155 10.2006 60.9915 10.2006 60.9668 10.2005C60.8876 10.2005 60.8085 10.2011 60.7293 10.2018C60.6743 10.2019 60.6193 10.202 60.5643 10.202C60.4492 10.2022 60.3341 10.2027 60.219 10.2035C60.0711 10.2044 59.9232 10.2049 59.7753 10.2051C59.6346 10.2054 59.4939 10.2058 59.3532 10.2064C59.3261 10.2064 59.2991 10.2065 59.2713 10.2066C59.1953 10.2069 59.1193 10.2073 59.0433 10.2079C59.0205 10.2079 58.9978 10.208 58.9743 10.2081C58.8748 10.1992 58.8748 10.1992 58.7912 10.2367Z" fill="white"/>
<path d="M27.4523 8.38162C27.4824 8.38133 27.4824 8.38133 27.513 8.38103C27.5797 8.38056 27.6464 8.38114 27.7131 8.38172C27.7611 8.3816 27.8091 8.38141 27.8571 8.38117C27.9873 8.38071 28.1174 8.38117 28.2476 8.38183C28.3841 8.38238 28.5206 8.38218 28.6571 8.38208C28.8865 8.38204 29.1159 8.38258 29.3453 8.38349C29.6098 8.38452 29.8744 8.38469 30.1389 8.38439C30.394 8.38411 30.649 8.38439 30.9041 8.38494C31.0123 8.38516 31.1206 8.38521 31.2288 8.3851C31.3566 8.38501 31.4844 8.38541 31.6122 8.38618C31.6589 8.38639 31.7056 8.38643 31.7522 8.3863C32.2718 8.385 32.6813 8.50839 33.0605 8.86966C33.4228 9.23961 33.5849 9.72624 33.5839 10.2301C33.5839 10.2558 33.584 10.2816 33.584 10.3081C33.5841 10.392 33.5839 10.4758 33.5837 10.5596C33.5837 10.5882 33.5836 10.6167 33.5836 10.6461C33.5829 10.9885 33.5819 11.331 33.5739 11.6733C33.5731 11.7077 33.5724 11.7421 33.5719 11.7765C33.5615 12.3603 33.3865 12.8783 32.9692 13.3096C32.8629 13.4072 32.7469 13.4888 32.6254 13.5673C32.6674 13.6867 32.7349 13.7864 32.8045 13.8918C32.8176 13.9118 32.8307 13.9318 32.8442 13.9524C32.8884 14.02 32.9329 14.0876 32.9773 14.1551C33.0108 14.206 33.0443 14.257 33.0779 14.308C33.0949 14.334 33.112 14.3599 33.1296 14.3867C33.1642 14.4393 33.1987 14.4921 33.2332 14.5448C33.3079 14.659 33.3828 14.7728 33.461 14.8848C33.6666 15.1828 33.6666 15.1828 33.646 15.3552C33.6228 15.4298 33.5898 15.4751 33.5303 15.5265C33.4526 15.5517 33.3965 15.5549 33.315 15.5564C33.2719 15.5572 33.2719 15.5572 33.228 15.5581C33.1813 15.5588 33.1813 15.5588 33.1337 15.5596C33.0856 15.5604 33.0856 15.5604 33.0365 15.5613C32.9684 15.5625 32.9003 15.5636 32.8322 15.5646C32.7457 15.566 32.6593 15.5675 32.5728 15.5692C32.4896 15.5707 32.4064 15.572 32.3231 15.5734C32.2925 15.5739 32.2618 15.5745 32.2302 15.5751C31.6662 15.583 31.6662 15.583 31.5195 15.4775C31.3893 15.3317 31.2945 15.1628 31.1974 14.9954C31.1729 14.9536 31.1484 14.9117 31.1238 14.87C31.1067 14.8407 31.0895 14.8115 31.0724 14.7822C30.9787 14.6226 30.8841 14.4635 30.7889 14.3047C30.7702 14.2735 30.7516 14.2423 30.733 14.2111C30.7069 14.1672 30.6807 14.1234 30.6544 14.0796C30.6394 14.0545 30.6244 14.0295 30.609 14.0036C30.5304 13.8765 30.5304 13.8765 30.4135 13.7877C30.3657 13.7853 30.3177 13.7846 30.2698 13.7845C30.2397 13.7845 30.2096 13.7844 30.1785 13.7843C30.1296 13.7844 30.1296 13.7844 30.0796 13.7845C30.0459 13.7844 30.0122 13.7844 29.9786 13.7844C29.908 13.7843 29.8374 13.7844 29.7668 13.7845C29.6761 13.7847 29.5854 13.7846 29.4948 13.7844C29.4252 13.7843 29.3557 13.7844 29.2862 13.7844C29.2364 13.7845 29.1867 13.7844 29.1369 13.7843C29.1069 13.7844 29.0769 13.7845 29.0459 13.7845C29.0193 13.7846 28.9927 13.7846 28.9654 13.7846C28.9066 13.7811 28.9066 13.7811 28.8803 13.8122C28.8773 13.8491 28.8761 13.8861 28.8755 13.9231C28.8751 13.9467 28.8747 13.9704 28.8743 13.9948C28.8739 14.0206 28.8736 14.0464 28.8732 14.073C28.8728 14.0995 28.8723 14.126 28.8718 14.1533C28.8703 14.2386 28.869 14.3239 28.8677 14.4091C28.8664 14.4935 28.8651 14.5779 28.8636 14.6624C28.8627 14.7149 28.8619 14.7675 28.8612 14.8201C28.8526 15.3163 28.8526 15.3163 28.7295 15.453C28.6119 15.5617 28.5116 15.5783 28.3536 15.579C28.3175 15.5793 28.3175 15.5793 28.2806 15.5795C28.242 15.5795 28.242 15.5795 28.2026 15.5796C28.1759 15.5797 28.1491 15.5797 28.1216 15.5798C28.0651 15.5799 28.0086 15.58 27.9521 15.58C27.8659 15.5801 27.7798 15.5805 27.6936 15.581C27.6387 15.581 27.5837 15.5811 27.5287 15.5811C27.4902 15.5814 27.4902 15.5814 27.451 15.5816C27.1393 15.5807 27.1393 15.5807 27.0213 15.4876C27.0095 15.4732 26.9978 15.4587 26.9857 15.4438C26.9736 15.4295 26.9615 15.4152 26.949 15.4004C26.8933 15.314 26.8915 15.2291 26.8916 15.1289C26.8916 15.1026 26.8916 15.0764 26.8916 15.0493C26.8918 15.0202 26.8919 14.9912 26.8921 14.9612C26.8922 14.9301 26.8922 14.899 26.8923 14.8669C26.894 14.4359 26.9018 14.0049 26.909 13.574C26.9111 13.4492 26.9131 13.3244 26.9151 13.1995C26.9185 12.9896 26.922 12.7798 26.9254 12.5699C26.9294 12.3307 26.9333 12.0916 26.9372 11.8525C26.941 11.6187 26.9448 11.3849 26.9486 11.1511C26.9502 11.0535 26.9518 10.9558 26.9534 10.8581C26.9575 10.6075 26.9618 10.3568 26.9664 10.1062C26.9691 9.95482 26.9712 9.80344 26.9731 9.65204C26.9745 9.54351 26.9762 9.43498 26.9779 9.32645C26.9787 9.27436 26.9793 9.22227 26.9798 9.17018C26.9805 9.09787 26.9817 9.02557 26.983 8.95326C26.9831 8.93195 26.9832 8.91064 26.9833 8.88869C26.987 8.71784 27.0205 8.58637 27.1504 8.46385C27.2456 8.39087 27.3335 8.37929 27.4523 8.38162ZM28.9306 10.2367C28.8985 10.4163 28.9018 10.5958 28.9021 10.7777C28.9021 10.8108 28.902 10.844 28.902 10.8771C28.902 10.9462 28.902 11.0152 28.9021 11.0843C28.9023 11.173 28.9022 11.2616 28.9021 11.3503C28.902 11.4185 28.902 11.4868 28.9021 11.5551C28.9021 11.6037 28.902 11.6523 28.9019 11.701C28.902 11.7302 28.9021 11.7595 28.9022 11.7897C28.9022 11.8156 28.9022 11.8415 28.9022 11.8681C28.8987 11.9254 28.8987 11.9254 28.9306 11.951C29.0061 11.9541 29.0811 11.9556 29.1567 11.9561C29.1805 11.9563 29.2042 11.9566 29.2287 11.9568C29.3077 11.9575 29.3867 11.9581 29.4657 11.9585C29.5061 11.9588 29.5061 11.9588 29.5473 11.959C29.6899 11.9598 29.8326 11.9604 29.9752 11.9609C30.0933 11.9613 30.2114 11.9622 30.3295 11.9634C30.472 11.9649 30.6144 11.9656 30.7569 11.9659C30.8112 11.9661 30.8655 11.9665 30.9198 11.9673C30.9959 11.9682 31.072 11.9682 31.1481 11.968C31.1705 11.9685 31.1928 11.969 31.2159 11.9695C31.3585 11.9679 31.4328 11.9382 31.5364 11.842C31.6494 11.7135 31.6277 11.5387 31.6276 11.3792C31.6277 11.3392 31.6277 11.3392 31.6279 11.2983C31.628 11.2421 31.6281 11.1858 31.628 11.1296C31.6279 11.0435 31.6285 10.9575 31.6291 10.8715C31.6292 10.8167 31.6292 10.762 31.6291 10.7073C31.6294 10.6816 31.6296 10.6559 31.6298 10.6294C31.6288 10.4657 31.6127 10.3793 31.494 10.2588C31.3882 10.1931 31.3019 10.199 31.1789 10.2007C31.1549 10.2006 31.1309 10.2006 31.1062 10.2005C31.027 10.2005 30.9479 10.2011 30.8687 10.2018C30.8137 10.2019 30.7587 10.202 30.7038 10.202C30.5886 10.2022 30.4735 10.2027 30.3584 10.2035C30.2105 10.2044 30.0626 10.2049 29.9147 10.2051C29.774 10.2054 29.6333 10.2058 29.4926 10.2064C29.4655 10.2064 29.4385 10.2065 29.4107 10.2066C29.3347 10.2069 29.2587 10.2073 29.1827 10.2079C29.1599 10.2079 29.1372 10.208 29.1137 10.2081C29.0142 10.1992 29.0142 10.1992 28.9306 10.2367Z" fill="white"/>
<path d="M42.6894 8.39624C42.7056 8.39612 42.7218 8.396 42.7384 8.39588C42.792 8.39552 42.8455 8.39535 42.8991 8.39522C42.9364 8.39507 42.9736 8.39493 43.0109 8.39479C43.0891 8.39454 43.1673 8.39439 43.2455 8.39431C43.3455 8.39417 43.4455 8.39358 43.5455 8.39289C43.6225 8.39243 43.6996 8.3923 43.7766 8.39227C43.8135 8.39219 43.8503 8.392 43.8872 8.39167C43.9388 8.39125 43.9905 8.3913 44.0422 8.39146C44.0715 8.39137 44.1009 8.39128 44.1311 8.39119C44.2423 8.40346 44.329 8.43775 44.4061 8.51805C44.418 8.53573 44.4298 8.5534 44.442 8.57162C44.4643 8.60448 44.4643 8.60448 44.487 8.63801C44.5043 8.66459 44.5216 8.69117 44.5394 8.71856C44.5497 8.73422 44.56 8.74989 44.5706 8.76603C44.6617 8.90471 44.7515 9.04422 44.8411 9.18386C44.8561 9.20734 44.8712 9.23082 44.8867 9.25501C44.9505 9.35441 45.0142 9.45382 45.078 9.55325C45.2123 9.76286 45.3476 9.97191 45.4832 10.1807C45.5584 10.2965 45.6334 10.4123 45.7084 10.528C45.7702 10.6235 45.8321 10.7189 45.8941 10.8143C46.0184 11.0058 46.1424 11.1975 46.2656 11.3897C46.298 11.4402 46.3305 11.4907 46.363 11.5412C46.435 11.6532 46.5066 11.7654 46.5763 11.8789C46.5877 11.8973 46.5991 11.9156 46.6108 11.9345C46.6316 11.9681 46.6521 12.0017 46.6723 12.0356C46.7213 12.1192 46.7213 12.1192 46.8048 12.1636C46.8203 12.1662 46.8359 12.1689 46.8519 12.1716C46.8521 12.1561 46.8523 12.1406 46.8526 12.1246C46.8584 11.7451 46.8642 11.3657 46.8702 10.9862C46.8731 10.8027 46.876 10.6192 46.8788 10.4357C46.8812 10.2755 46.8837 10.1154 46.8862 9.95523C46.8876 9.87062 46.8889 9.786 46.8902 9.70138C46.9057 8.65747 46.9057 8.65747 47.0116 8.50905C47.1632 8.37922 47.3244 8.3891 47.5156 8.38957C47.5457 8.38944 47.5758 8.38931 47.6068 8.38918C47.6704 8.38903 47.7339 8.38906 47.7975 8.38927C47.8946 8.38947 47.9917 8.38877 48.0889 8.38799C48.1507 8.38795 48.2125 8.38797 48.2744 8.38804C48.3033 8.38777 48.3323 8.38749 48.3622 8.38721C48.5203 8.38854 48.6166 8.39487 48.737 8.49815C48.7588 8.51482 48.7588 8.51482 48.781 8.53182C48.8719 8.64698 48.8692 8.78391 48.8663 8.92272C48.8661 8.94291 48.8659 8.96309 48.8657 8.98389C48.8652 9.0277 48.8645 9.07152 48.8638 9.11533C48.8627 9.18418 48.8618 9.25304 48.8611 9.3219C48.8593 9.47681 48.857 9.63171 48.8546 9.78661C48.8538 9.84571 48.8529 9.90482 48.852 9.96392C48.8441 10.4988 48.8358 11.0336 48.8273 11.5684C48.8261 11.6397 48.825 11.7109 48.8239 11.7821C48.8236 11.7998 48.8233 11.8175 48.823 11.8358C48.8184 12.1235 48.8142 12.4113 48.81 12.699C48.8057 12.9954 48.8011 13.2917 48.7963 13.5881C48.7936 13.7541 48.791 13.9201 48.7887 14.0861C48.7866 14.242 48.7841 14.3978 48.7814 14.5537C48.7804 14.6108 48.7796 14.668 48.7789 14.7251C48.7779 14.8032 48.7765 14.8812 48.775 14.9592C48.7748 14.993 48.7748 14.993 48.7745 15.0276C48.7704 15.1988 48.7413 15.3364 48.6302 15.4747C48.4674 15.5972 48.2797 15.5829 48.0827 15.5822C48.0393 15.5823 48.0393 15.5823 47.9951 15.5823C47.9342 15.5824 47.8733 15.5823 47.8123 15.5821C47.7193 15.5818 47.6264 15.5821 47.5334 15.5824C47.474 15.5824 47.4147 15.5823 47.3553 15.5822C47.3277 15.5823 47.3 15.5824 47.2715 15.5825C46.9469 15.5806 46.9469 15.5806 46.8133 15.4776C46.7288 15.3776 46.6595 15.2709 46.5895 15.1609C46.5581 15.1122 46.5267 15.0635 46.4954 15.0148C46.4794 14.99 46.4635 14.9651 46.4471 14.9396C46.3732 14.8247 46.2983 14.7104 46.2235 14.5961C46.1942 14.5513 46.165 14.5065 46.1357 14.4617C46.0764 14.3709 46.0171 14.2802 45.9578 14.1894C45.8074 13.9594 45.6574 13.7291 45.508 13.4984C45.3534 13.2598 45.1977 13.0218 45.0421 12.7839C44.9824 12.6925 44.9227 12.6012 44.863 12.5099C44.8485 12.4877 44.834 12.4655 44.8191 12.4426C44.7481 12.3341 44.6775 12.2254 44.6073 12.1164C44.4242 11.8158 44.4242 11.8158 44.2127 11.5349C44.1961 11.5349 44.1795 11.5349 44.1624 11.5349C44.1322 11.5937 44.1335 11.6316 44.1325 11.6973C44.1319 11.7332 44.1319 11.7332 44.1312 11.7698C44.1307 11.8094 44.1307 11.8094 44.1302 11.8498C44.1297 11.8775 44.1293 11.9052 44.1288 11.9338C44.1273 12.0262 44.126 12.1186 44.1247 12.211C44.1237 12.2756 44.1226 12.3402 44.1216 12.4049C44.1189 12.5759 44.1163 12.747 44.1137 12.9181C44.1099 13.173 44.1059 13.4279 44.1019 13.6828C44.1001 13.793 44.0985 13.9032 44.0969 14.0134C44.0947 14.1608 44.0918 14.3082 44.0887 14.4557C44.0872 14.5363 44.0863 14.6168 44.0856 14.6974C44.0849 14.7645 44.0836 14.8315 44.0823 14.8986C44.0815 14.9457 44.0814 14.9928 44.0812 15.0399C44.0772 15.215 44.062 15.3461 43.9362 15.4777C43.8463 15.5483 43.7788 15.5606 43.6648 15.5615C43.6361 15.5619 43.6074 15.5623 43.5779 15.5627C43.5317 15.5627 43.5317 15.5627 43.4846 15.5627C43.4528 15.5629 43.421 15.5631 43.3882 15.5633C43.3209 15.5635 43.2537 15.5636 43.1865 15.5635C43.1006 15.5633 43.0147 15.5641 42.9288 15.5651C42.8465 15.5659 42.7642 15.5658 42.6819 15.5658C42.6512 15.5662 42.6205 15.5666 42.5888 15.567C42.3509 15.5651 42.3509 15.5651 42.2614 15.4998C42.1129 15.3226 42.1165 15.166 42.1208 14.9448C42.1212 14.8969 42.1212 14.8969 42.1217 14.8481C42.1226 14.7587 42.124 14.6693 42.1255 14.5799C42.1268 14.5019 42.1278 14.4239 42.1287 14.3459C42.1321 14.0794 42.1364 13.8129 42.1409 13.5465C42.1429 13.4216 42.1449 13.2968 42.147 13.172C42.1504 12.9621 42.1538 12.7523 42.1573 12.5424C42.1613 12.3033 42.1652 12.0641 42.169 11.825C42.1728 11.5912 42.1766 11.3574 42.1805 11.1236C42.1821 11.0259 42.1837 10.9282 42.1852 10.8305C42.186 10.7839 42.1868 10.7372 42.1875 10.6906C42.1879 10.6677 42.1883 10.6448 42.1886 10.6212C42.1905 10.508 42.1924 10.3948 42.1946 10.2817C42.1954 10.2369 42.1962 10.1921 42.1971 10.1473C42.1975 10.125 42.1979 10.1028 42.1983 10.0799C42.201 9.93074 42.2029 9.78163 42.2043 9.63249C42.2054 9.5264 42.2068 9.42033 42.2084 9.31425C42.209 9.2635 42.2095 9.21274 42.2098 9.16198C42.2102 9.09153 42.2112 9.0211 42.2123 8.95065C42.2123 8.92999 42.2123 8.90934 42.2123 8.88805C42.2154 8.74768 42.247 8.64018 42.3275 8.52264C42.4445 8.41425 42.5313 8.39715 42.6894 8.39624Z" fill="white"/>
<path d="M73.744 8.39025C73.7883 8.39015 73.8327 8.39002 73.8771 8.38986C73.9966 8.38953 74.1162 8.38966 74.2357 8.38989C74.3612 8.39008 74.4866 8.3899 74.6121 8.38979C74.8225 8.38965 75.0329 8.38983 75.2433 8.39018C75.4864 8.39058 75.7295 8.39045 75.9726 8.39005C76.1818 8.38971 76.391 8.38967 76.6002 8.38986C76.7249 8.38997 76.8497 8.38999 76.9744 8.38974C77.0915 8.38953 77.2087 8.38968 77.3258 8.3901C77.3687 8.3902 77.4117 8.39017 77.4546 8.39001C77.5133 8.38981 77.5719 8.39006 77.6306 8.39043C77.6798 8.39047 77.6798 8.39047 77.73 8.39051C77.8582 8.40394 77.9398 8.44244 78.0272 8.53445C78.0869 8.62069 78.098 8.68521 78.0988 8.78678C78.099 8.81066 78.0993 8.83454 78.0995 8.85914C78.0997 8.89782 78.0997 8.89782 78.0999 8.93729C78.1 8.9639 78.1001 8.99051 78.1003 9.01793C78.1005 9.07431 78.1007 9.1307 78.1008 9.18708C78.101 9.27297 78.1018 9.35885 78.1026 9.44474C78.1028 9.49957 78.1029 9.5544 78.103 9.60923C78.1033 9.63477 78.1036 9.66031 78.1039 9.68663C78.1034 9.87088 78.0888 10.0294 77.9527 10.1675C77.8109 10.2806 77.627 10.2565 77.4535 10.2546C77.4138 10.2548 77.3741 10.255 77.3343 10.2552C77.2268 10.2557 77.1193 10.2553 77.0117 10.2547C76.8991 10.2543 76.7864 10.2548 76.6738 10.2551C76.4606 10.2557 76.2473 10.2556 76.0341 10.2552C75.6519 10.2545 75.2698 10.255 74.8877 10.2558C74.7536 10.256 74.6195 10.2559 74.4854 10.2556C74.402 10.2554 74.3187 10.2555 74.2354 10.2555C74.1967 10.2555 74.158 10.2554 74.1194 10.2552C74.0666 10.255 74.0139 10.255 73.9612 10.2552C73.9169 10.2551 73.9169 10.2551 73.8717 10.255C73.7984 10.2608 73.7571 10.2709 73.6961 10.31C73.6127 10.4268 73.6366 10.5778 73.6364 10.714C73.6355 10.756 73.6355 10.756 73.6345 10.7987C73.6344 10.8256 73.6343 10.8524 73.6342 10.8801C73.634 10.9046 73.6338 10.9291 73.6336 10.9544C73.6494 11.0393 73.6783 11.0641 73.7464 11.1181C73.8072 11.1325 73.8072 11.1325 73.8741 11.1302C73.9128 11.1305 73.9128 11.1305 73.9522 11.1308C73.9804 11.1305 74.0085 11.1302 74.0375 11.1299C74.0822 11.1301 74.0822 11.1301 74.1277 11.1302C74.2094 11.1304 74.291 11.1302 74.3727 11.1298C74.4585 11.1295 74.5443 11.1298 74.6302 11.1301C74.8672 11.1308 75.1043 11.1306 75.3413 11.1303C75.5578 11.1301 75.7743 11.13 75.9909 11.1308C76.0761 11.1311 76.1613 11.1311 76.2465 11.1307C76.8661 11.1281 77.3468 11.178 77.8183 11.6079C78.1778 11.972 78.3497 12.4539 78.3503 12.9533C78.3504 12.9768 78.3505 13.0002 78.3506 13.0244C78.3507 13.0739 78.3508 13.1235 78.3508 13.1731C78.3508 13.2478 78.3513 13.3226 78.3517 13.3973C78.3537 14.0401 78.2423 14.6213 77.7645 15.093C77.2995 15.5194 76.8064 15.5796 76.1955 15.5777C76.1511 15.5777 76.1067 15.5777 76.0624 15.5776C75.9176 15.5775 75.7728 15.5771 75.628 15.5766C75.578 15.5765 75.528 15.5763 75.478 15.5762C75.2701 15.5756 75.0623 15.5749 74.8544 15.574C74.557 15.5728 74.2596 15.572 73.9622 15.5718C73.7527 15.5716 73.5432 15.5709 73.3337 15.5699C73.2087 15.5693 73.0837 15.5689 72.9587 15.569C72.8413 15.5691 72.7239 15.5686 72.6064 15.5677C72.5634 15.5674 72.5203 15.5674 72.4773 15.5676C72.4184 15.5678 72.3596 15.5673 72.3008 15.5666C72.2679 15.5665 72.235 15.5664 72.2011 15.5663C72.0844 15.5458 72.0449 15.5096 71.9618 15.4283C71.8756 15.2861 71.8764 15.1591 71.8801 14.9967C71.8804 14.9716 71.8807 14.9465 71.8811 14.9206C71.8824 14.8368 71.8844 14.753 71.8864 14.6691C71.8869 14.638 71.8874 14.6068 71.888 14.5747C71.8896 14.4786 71.8918 14.3826 71.8942 14.2865C71.8948 14.2562 71.8953 14.2258 71.8959 14.1946C71.9053 13.8972 71.9053 13.8972 72.0255 13.7717C72.1465 13.6816 72.1988 13.662 72.3508 13.6617C72.3677 13.6616 72.3846 13.6615 72.402 13.6615C72.459 13.6613 72.5159 13.6612 72.5728 13.6612C72.6135 13.6611 72.6542 13.661 72.6949 13.6608C72.7827 13.6605 72.8705 13.6603 72.9583 13.6602C73.0971 13.6599 73.2358 13.6594 73.3746 13.6589C73.7693 13.6574 74.1639 13.656 74.5586 13.6552C74.7764 13.6548 74.9943 13.6541 75.2121 13.6531C75.3275 13.6526 75.4428 13.6522 75.5581 13.6521C75.6666 13.6521 75.7751 13.6517 75.8836 13.651C75.9234 13.6509 75.9632 13.6508 76.0031 13.6509C76.0574 13.651 76.1118 13.6506 76.1661 13.6502C76.1965 13.6501 76.2269 13.65 76.2583 13.6499C76.3422 13.6397 76.3769 13.6253 76.4358 13.5671C76.4705 13.4657 76.4676 13.3702 76.4688 13.264C76.4696 13.2432 76.4703 13.2224 76.471 13.2009C76.4712 13.1806 76.4715 13.1604 76.4717 13.1395C76.472 13.1211 76.4724 13.1027 76.4728 13.0838C76.4543 12.9971 76.4292 12.9653 76.3604 12.9059C76.2628 12.8872 76.1658 12.89 76.0666 12.8913C76.0365 12.8912 76.0065 12.8911 75.9755 12.891C75.8931 12.8908 75.8106 12.8912 75.7282 12.8917C75.6416 12.8922 75.555 12.8919 75.4684 12.8916C75.2665 12.8911 75.0647 12.8915 74.8629 12.892C74.607 12.8926 74.3511 12.8929 74.0952 12.8922C74.0092 12.892 73.9232 12.892 73.8372 12.8925C73.2552 12.8957 72.7665 12.8614 72.32 12.4519C72.0972 12.2363 71.9319 11.9732 71.8361 11.6814C71.8293 11.6618 71.8226 11.6422 71.8156 11.622C71.7386 11.3584 71.7493 11.0883 71.7509 10.8164C71.7513 10.7313 71.7509 10.6462 71.7504 10.5611C71.7497 9.89548 71.8741 9.34761 72.3554 8.8466C72.7505 8.47708 73.2178 8.38825 73.744 8.39025Z" fill="white"/>
<path d="M79.7971 8.38697C79.8277 8.38688 79.8584 8.38679 79.8899 8.38669C79.9545 8.38662 80.0191 8.3868 80.0837 8.38721C80.1824 8.38774 80.2811 8.38722 80.3799 8.38659C80.4427 8.38666 80.5056 8.38678 80.5684 8.38697C80.5979 8.38678 80.6273 8.38658 80.6577 8.38637C80.9215 8.38932 80.9215 8.38932 81.0357 8.49794C81.1362 8.63799 81.1504 8.74054 81.1476 8.90915C81.1476 8.93258 81.1477 8.95601 81.1477 8.98016C81.1476 9.05715 81.1468 9.13412 81.146 9.21111C81.1458 9.26468 81.1457 9.31824 81.1456 9.3718C81.1452 9.51244 81.1442 9.65306 81.1431 9.79369C81.1419 9.96261 81.1414 10.1315 81.1409 10.3005C81.1399 10.5568 81.138 10.8131 81.1362 11.0694C82.3182 11.0815 82.3182 11.0815 83.5241 11.0939C83.5406 10.5134 83.5553 9.93346 83.5593 9.35286C83.56 9.25988 83.5611 9.16691 83.5623 9.07393C83.5624 9.04623 83.5625 9.01853 83.5626 8.98999C83.5683 8.63547 83.5683 8.63547 83.6862 8.50727C83.7884 8.4219 83.8522 8.39694 83.9837 8.39604C84.0115 8.3958 84.0393 8.39557 84.0679 8.39533C84.1131 8.39517 84.1131 8.39517 84.1592 8.39501C84.1901 8.39487 84.221 8.39473 84.2528 8.39459C84.3182 8.39436 84.3836 8.3942 84.4491 8.3941C84.5492 8.39394 84.6493 8.3931 84.7494 8.39233C84.813 8.39217 84.8765 8.39204 84.94 8.39195C84.97 8.39165 84.9999 8.39134 85.0308 8.39103C85.0588 8.39111 85.0868 8.39118 85.1157 8.39126C85.1526 8.39112 85.1526 8.39112 85.1902 8.39098C85.3021 8.40575 85.3826 8.46124 85.4532 8.54539C85.5239 8.63922 85.5381 8.70481 85.5376 8.81913C85.5375 8.84874 85.5375 8.84874 85.5375 8.87896C85.5372 8.91104 85.5372 8.91104 85.5369 8.94376C85.5368 8.96646 85.5367 8.98915 85.5366 9.01254C85.5362 9.08591 85.5356 9.15927 85.5349 9.23264C85.5346 9.25617 85.5344 9.27969 85.5342 9.30393C85.5323 9.48206 85.5298 9.66018 85.5272 9.83831C85.5264 9.89714 85.5256 9.95597 85.5247 10.0148C85.5172 10.5467 85.5091 11.0785 85.5007 11.6104C85.4996 11.6812 85.4985 11.752 85.4974 11.8228C85.4972 11.8404 85.4969 11.858 85.4966 11.8761C85.4922 12.1622 85.4881 12.4482 85.4841 12.7343C85.4801 13.0291 85.4756 13.3239 85.4708 13.6186C85.4682 13.7837 85.4657 13.9488 85.4636 14.1139C85.4616 14.2688 85.4592 14.4238 85.4564 14.5787C85.4555 14.6355 85.4547 14.6923 85.4541 14.749C85.4533 14.8266 85.4518 14.9042 85.4502 14.9818C85.4501 15.0042 85.45 15.0265 85.4499 15.0495C85.4452 15.2285 85.4023 15.3833 85.273 15.5149C85.1334 15.5709 84.9986 15.5655 84.8491 15.5649C84.8168 15.565 84.7845 15.5652 84.7511 15.5653C84.6828 15.5656 84.6146 15.5655 84.5463 15.5651C84.4591 15.5647 84.3719 15.5653 84.2846 15.5661C84.201 15.5668 84.1174 15.5666 84.0338 15.5664C83.987 15.5669 83.987 15.5669 83.9393 15.5674C83.698 15.5649 83.698 15.5649 83.6084 15.5011C83.4792 15.3429 83.4629 15.19 83.4675 14.9954C83.4678 14.9725 83.468 14.9496 83.4682 14.926C83.4691 14.851 83.4705 14.776 83.4719 14.7009C83.4726 14.6486 83.4733 14.5963 83.4739 14.544C83.4757 14.4067 83.4779 14.2695 83.4803 14.1322C83.4826 13.9922 83.4844 13.8521 83.4863 13.7121C83.4894 13.4863 83.4928 13.2605 83.4965 13.0347C83.4983 12.9337 83.4983 12.9337 83.4989 12.8326C82.3169 12.8448 82.3169 12.8448 81.1111 12.8571C81.0916 12.9522 81.0824 13.0277 81.0812 13.1231C81.0808 13.1515 81.0803 13.1799 81.0799 13.2092C81.0796 13.2399 81.0792 13.2707 81.0789 13.3023C81.0782 13.3517 81.0775 13.4011 81.0767 13.4505C81.0758 13.52 81.0749 13.5895 81.074 13.6589C81.0711 13.8955 81.0678 14.1321 81.0634 14.3686C81.0615 14.4732 81.0603 14.5778 81.0594 14.6824C81.0587 14.7519 81.0575 14.8213 81.0561 14.8907C81.0553 14.939 81.0552 14.9874 81.055 15.0357C81.051 15.2122 81.035 15.3434 80.91 15.4775C80.7993 15.5591 80.6985 15.5784 80.5621 15.5791C80.526 15.5793 80.526 15.5793 80.4891 15.5795C80.4503 15.5796 80.4503 15.5796 80.4107 15.5796C80.384 15.5797 80.3572 15.5798 80.3296 15.5799C80.2729 15.58 80.2163 15.58 80.1597 15.58C80.0733 15.5801 79.9869 15.5805 79.9005 15.581C79.8454 15.5811 79.7903 15.5811 79.7352 15.5811C79.7095 15.5813 79.6838 15.5815 79.6573 15.5817C79.4861 15.5811 79.3414 15.5802 79.2055 15.4684C79.0995 15.3444 79.093 15.2496 79.0941 15.0906C79.0941 15.0679 79.094 15.0452 79.094 15.0218C79.094 14.9435 79.0944 14.8652 79.0949 14.7868C79.095 14.729 79.0952 14.6712 79.0954 14.6134C79.0991 13.6929 79.1169 12.7724 79.1324 11.852C79.136 11.6394 79.1394 11.4267 79.1428 11.2141C79.1466 10.9804 79.1504 10.7467 79.1543 10.5129C79.1559 10.415 79.1575 10.3171 79.1591 10.2192C79.1632 9.95987 79.1678 9.70052 79.1734 9.44119C79.1749 9.37006 79.1762 9.29894 79.1773 9.2278C79.1788 9.13848 79.1809 9.04919 79.1831 8.95988C79.1834 8.9351 79.1837 8.91032 79.184 8.88479C79.1886 8.73775 79.2128 8.61983 79.3014 8.49794C79.4521 8.37536 79.6071 8.38569 79.7971 8.38697Z" fill="white"/>
<path d="M50.2521 8.39572C50.2936 8.39525 50.2936 8.39525 50.336 8.39477C50.366 8.39459 50.3961 8.39441 50.4271 8.39422C50.4579 8.39402 50.4887 8.39383 50.5204 8.39362C50.5858 8.39328 50.6511 8.39302 50.7164 8.39283C50.8163 8.3925 50.9161 8.39133 51.016 8.39025C51.0794 8.39 51.1428 8.38979 51.2062 8.38963C51.2361 8.3892 51.2659 8.38877 51.2967 8.38833C51.4564 8.38874 51.5578 8.39101 51.6779 8.49802C51.842 8.68818 51.8059 8.93015 51.8005 9.16479C51.7996 9.21303 51.7987 9.26126 51.7978 9.3095C51.7968 9.36036 51.7958 9.41123 51.7947 9.46209C51.7911 9.63649 51.788 9.81089 51.7849 9.98529C51.7846 10.0025 51.7843 10.0197 51.784 10.0375C51.7786 10.3402 51.7761 10.6428 51.7769 10.9455C51.7769 10.965 51.777 10.9845 51.777 11.0047C51.7773 11.1079 51.7778 11.2111 51.7785 11.3143C51.795 11.3143 51.8116 11.3143 51.8287 11.3143C51.8723 11.2656 51.8723 11.2656 51.9198 11.1995C51.9402 11.1724 51.9607 11.1453 51.9811 11.1181C51.9985 11.0951 51.9985 11.0951 52.0162 11.0715C52.0918 10.972 52.1694 10.8739 52.2466 10.7756C52.3816 10.6033 52.5156 10.4304 52.6488 10.2567C52.7834 10.0811 52.9204 9.90745 53.059 9.73476C53.1643 9.6034 53.2675 9.4707 53.3698 9.33714C53.4779 9.1961 53.5871 9.05589 53.6966 8.91587C53.7214 8.88413 53.7214 8.88413 53.7467 8.85175C53.7787 8.81089 53.8107 8.77009 53.8428 8.72934C53.8747 8.68872 53.9062 8.64785 53.9375 8.60677C53.9603 8.57714 53.9603 8.57714 53.9836 8.5469C53.997 8.52923 54.0104 8.51157 54.0242 8.49337C54.0962 8.41652 54.1497 8.40128 54.2571 8.39334C54.2941 8.39283 54.331 8.39258 54.368 8.39255C54.3883 8.39235 54.4085 8.39215 54.4294 8.39194C54.4962 8.39135 54.563 8.39113 54.6298 8.39097C54.6763 8.39075 54.7227 8.39053 54.7692 8.3903C54.8665 8.38989 54.9638 8.38971 55.0611 8.38964C55.1859 8.3895 55.3107 8.38858 55.4355 8.38746C55.5314 8.38673 55.6273 8.38656 55.7232 8.38653C55.7692 8.38643 55.8152 8.38612 55.8613 8.38561C55.9255 8.38496 55.9898 8.38507 56.054 8.38538C56.0827 8.38483 56.0827 8.38483 56.1119 8.38428C56.1649 8.385 56.1649 8.385 56.2525 8.40006C56.3109 8.46767 56.3274 8.50288 56.3298 8.5911C56.2913 8.70271 56.2235 8.77979 56.1473 8.86995C56.1149 8.90929 56.0826 8.94867 56.0504 8.9881C56.0338 9.00828 56.0172 9.02847 56.0001 9.04926C55.9226 9.14536 55.8488 9.24406 55.7749 9.34291C55.6449 9.5163 55.5115 9.68665 55.3756 9.85571C55.2805 9.97408 55.187 10.0934 55.0947 10.2138C54.9934 10.3461 54.8914 10.4777 54.7884 10.6087C54.775 10.6258 54.7615 10.6429 54.7477 10.6605C54.7196 10.6962 54.6915 10.732 54.6633 10.7678C54.4279 11.0673 54.1936 11.3675 53.962 11.6699C53.9474 11.6889 53.9328 11.708 53.9177 11.7276C53.9042 11.7453 53.8907 11.763 53.8768 11.7813C53.8453 11.8213 53.8114 11.8597 53.7771 11.8975C53.7328 11.9468 53.7328 11.9468 53.7457 11.9981C53.7647 12.0507 53.787 12.0881 53.8202 12.1333C53.8319 12.1494 53.8436 12.1654 53.8557 12.182C53.8685 12.1992 53.8813 12.2165 53.8945 12.2342C53.9146 12.2616 53.9146 12.2616 53.9351 12.2895C54.0648 12.4656 54.1971 12.6399 54.3295 12.8142C54.4831 13.0168 54.6337 13.2216 54.7847 13.4261C54.9523 13.6529 55.1211 13.8788 55.2916 14.1036C55.4043 14.2523 55.5156 14.4019 55.6263 14.552C55.6985 14.6497 55.7713 14.7469 55.8449 14.8435C55.8608 14.8642 55.8766 14.885 55.893 14.9065C55.9233 14.9462 55.9538 14.986 55.9844 15.0256C56.2031 15.3122 56.2031 15.3122 56.2007 15.4348C56.1752 15.5074 56.1653 15.5318 56.1017 15.5756C56.0361 15.5828 55.9765 15.5856 55.9109 15.5851C55.8819 15.5853 55.8819 15.5853 55.8522 15.5855C55.7881 15.5858 55.7239 15.5856 55.6598 15.5853C55.6152 15.5854 55.5705 15.5854 55.5259 15.5855C55.4323 15.5856 55.3388 15.5855 55.2452 15.5851C55.1254 15.5847 55.0057 15.585 54.8859 15.5854C54.7937 15.5857 54.7015 15.5856 54.6094 15.5854C54.5652 15.5854 54.5211 15.5854 54.4769 15.5856C54.4151 15.5858 54.3532 15.5855 54.2914 15.5851C54.2733 15.5852 54.2551 15.5854 54.2364 15.5855C54.1015 15.5839 53.9985 15.5539 53.8977 15.4646C53.8868 15.4514 53.876 15.4381 53.8648 15.4245C53.8461 15.4019 53.8461 15.4019 53.827 15.3788C53.7621 15.2959 53.6989 15.2121 53.6369 15.1271C53.608 15.0879 53.5792 15.0487 53.5503 15.0094C53.5357 14.9896 53.5211 14.9697 53.5061 14.9492C53.4379 14.8563 53.3693 14.7636 53.3007 14.671C53.2873 14.6529 53.2739 14.6348 53.2602 14.6162C53.1605 14.4817 53.0595 14.3482 52.9582 14.2149C52.7961 14.0014 52.6384 13.785 52.4822 13.5674C52.3545 13.6854 52.2499 13.818 52.1438 13.9544C52.0724 14.0462 52.0013 14.1359 51.9211 14.2206C51.697 14.4668 51.6957 14.6983 51.7029 15.0187C51.7034 15.1901 51.694 15.3174 51.5774 15.4531C51.4598 15.5618 51.3595 15.5784 51.2015 15.5791C51.1654 15.5794 51.1654 15.5794 51.1285 15.5796C51.0899 15.5796 51.0899 15.5796 51.0505 15.5797C51.0238 15.5798 50.997 15.5798 50.9695 15.5799C50.913 15.5801 50.8565 15.5801 50.8 15.5801C50.7138 15.5802 50.6277 15.5806 50.5415 15.5811C50.4866 15.5811 50.4316 15.5812 50.3766 15.5812C50.3381 15.5815 50.3381 15.5815 50.2989 15.5817C49.9872 15.5808 49.9872 15.5808 49.8692 15.4877C49.8574 15.4733 49.8457 15.4588 49.8336 15.4439C49.8215 15.4296 49.8094 15.4153 49.7969 15.4005C49.7412 15.3142 49.7394 15.2295 49.7395 15.1295C49.7395 15.1033 49.7395 15.077 49.7395 15.05C49.7397 15.021 49.7398 14.992 49.74 14.9621C49.7401 14.931 49.7401 14.8999 49.7402 14.8679C49.7419 14.4327 49.7497 13.9977 49.7569 13.5626C49.759 13.4363 49.761 13.3099 49.763 13.1836C49.7664 12.9712 49.7699 12.7588 49.7733 12.5464C49.7773 12.3042 49.7812 12.062 49.7851 11.8198C49.7889 11.5832 49.7927 11.3466 49.7965 11.11C49.7981 11.011 49.7997 10.9121 49.8013 10.8132C49.8021 10.7659 49.8028 10.7186 49.8036 10.6713C49.8041 10.6365 49.8041 10.6365 49.8047 10.601C49.8066 10.4866 49.8085 10.3722 49.8106 10.2578C49.811 10.2355 49.8115 10.2132 49.8119 10.1902C49.8127 10.1451 49.8136 10.1 49.8144 10.0548C49.8171 9.90699 49.8189 9.75913 49.8203 9.61126C49.8214 9.50734 49.8229 9.40343 49.8244 9.29951C49.8251 9.24996 49.8255 9.20041 49.8258 9.15085C49.8262 9.08217 49.8272 9.01351 49.8284 8.94483C49.8284 8.92474 49.8283 8.90465 49.8283 8.88395C49.8315 8.74532 49.8641 8.63852 49.9436 8.52251C50.0485 8.4276 50.1109 8.39711 50.2521 8.39572Z" fill="white"/>
<path d="M64.7481 8.37116C64.7737 8.37085 64.7993 8.37053 64.8257 8.37021C64.8533 8.37003 64.881 8.36985 64.9094 8.36966C64.9522 8.36936 64.9522 8.36936 64.9958 8.36906C65.0561 8.36872 65.1165 8.36846 65.1768 8.36827C65.2689 8.36785 65.3609 8.36677 65.453 8.36569C65.5116 8.36544 65.5703 8.36523 65.6289 8.36507C65.6701 8.36443 65.6701 8.36443 65.7121 8.36377C65.8733 8.36422 65.9788 8.37192 66.1053 8.47346C66.2506 8.63514 66.2177 8.86049 66.2137 9.06121C66.2133 9.10268 66.2129 9.14415 66.2125 9.18562C66.2113 9.305 66.2093 9.42437 66.2072 9.54374C66.2053 9.65872 66.2037 9.77371 66.2021 9.88869C66.1962 10.3057 66.189 10.7227 66.1816 11.1397C66.1774 11.3816 66.1732 11.6234 66.1691 11.8653C66.1672 11.9766 66.1653 12.0878 66.1633 12.199C66.1607 12.3466 66.1585 12.4941 66.1568 12.6418C66.1559 12.7071 66.155 12.7724 66.1539 12.8377C66.1525 12.9254 66.1515 13.0131 66.1507 13.1008C66.1504 13.1344 66.1499 13.1679 66.1493 13.2015C66.1484 13.248 66.1481 13.2946 66.1478 13.3412C66.1475 13.3678 66.1472 13.3943 66.1469 13.4217C66.1569 13.5048 66.1789 13.5502 66.231 13.6163C66.3001 13.6388 66.3409 13.6439 66.4121 13.6441C66.4337 13.6442 66.4552 13.6443 66.4774 13.6444C66.5009 13.6444 66.5245 13.6444 66.5487 13.6444C66.5736 13.6444 66.5984 13.6445 66.624 13.6446C66.7064 13.6448 66.7887 13.6449 66.8711 13.6449C66.9282 13.645 66.9853 13.6451 67.0425 13.6452C67.1623 13.6453 67.2821 13.6454 67.4019 13.6453C67.5556 13.6453 67.7093 13.6457 67.863 13.6461C67.981 13.6464 68.099 13.6464 68.217 13.6464C68.2737 13.6464 68.3304 13.6465 68.3871 13.6467C68.4663 13.647 68.5454 13.6469 68.6246 13.6468C68.6599 13.647 68.6599 13.647 68.6958 13.6472C68.7174 13.6471 68.739 13.647 68.7613 13.6469C68.7893 13.6469 68.7893 13.6469 68.818 13.6469C68.8786 13.6398 68.9187 13.6225 68.9707 13.5918C69.0274 13.5131 69.0283 13.4406 69.0305 13.3462C69.0318 13.2992 69.0318 13.2992 69.0331 13.2512C69.0338 13.2155 69.0345 13.1799 69.0351 13.1443C69.036 13.1058 69.037 13.0674 69.0379 13.0289C69.0411 12.89 69.0437 12.7511 69.0461 12.6122C69.0466 12.5849 69.0471 12.5576 69.0476 12.5294C69.0567 12.0203 69.0644 11.511 69.0721 11.0018C69.0792 10.5289 69.0866 10.0559 69.095 9.58294C69.0963 9.5073 69.0975 9.43165 69.0987 9.35601C69.1004 9.25417 69.1024 9.15233 69.1047 9.0505C69.1054 9.01612 69.1061 8.98173 69.1065 8.94734C69.1072 8.90199 69.1084 8.85664 69.1096 8.8113C69.1101 8.78707 69.1106 8.76283 69.1111 8.73786C69.1286 8.62311 69.1778 8.52533 69.2724 8.45356C69.3698 8.38431 69.4342 8.37239 69.5516 8.37116C69.5778 8.37085 69.604 8.37053 69.6309 8.37021C69.6592 8.37003 69.6875 8.36985 69.7166 8.36966C69.7603 8.36936 69.7603 8.36936 69.8048 8.36906C69.8665 8.36872 69.9281 8.36846 69.9897 8.36827C70.0839 8.36785 70.178 8.36677 70.2722 8.36569C70.3321 8.36544 70.392 8.36523 70.4518 8.36507C70.48 8.36464 70.5081 8.36421 70.5371 8.36377C70.6936 8.36419 70.7876 8.37051 70.9061 8.47346C71.0073 8.58002 71.0351 8.65849 71.0348 8.80112C71.0347 8.83403 71.0347 8.83403 71.0347 8.86761C71.0346 8.89205 71.0344 8.91649 71.0342 8.94168C71.0342 8.96823 71.0341 8.99478 71.034 9.02214C71.0318 9.46044 71.0246 9.89872 71.018 10.337C71.0176 10.3612 71.0172 10.3854 71.0169 10.4103C71.0134 10.6393 71.0098 10.8684 71.0062 11.0974C71.0016 11.3877 70.9973 11.678 70.9932 11.9683C70.9903 12.1741 70.9871 12.3799 70.9838 12.5857C70.9818 12.7079 70.9799 12.8302 70.9783 12.9524C70.9768 13.0672 70.975 13.1821 70.973 13.2969C70.9723 13.3386 70.9717 13.3804 70.9712 13.4222C70.9643 14.0418 70.8397 14.6135 70.3868 15.0789C69.7976 15.6377 69.0966 15.5803 68.3301 15.5755C68.2752 15.5751 68.2204 15.5748 68.1656 15.5745C67.9736 15.5735 67.7816 15.5723 67.5896 15.5709C67.4116 15.5697 67.2337 15.5688 67.0558 15.5681C66.9019 15.5675 66.748 15.5666 66.5941 15.5655C66.5027 15.5649 66.4113 15.5643 66.3198 15.5641C66.218 15.5638 66.1161 15.5629 66.0143 15.562C65.9697 15.562 65.9697 15.562 65.9243 15.562C65.4674 15.5564 65.0929 15.3939 64.7684 15.0818C64.4213 14.7186 64.2406 14.2441 64.242 13.7509C64.242 13.7304 64.242 13.7099 64.2419 13.6888C64.2419 13.6202 64.2421 13.5515 64.2423 13.4828C64.2423 13.4585 64.2423 13.4343 64.2424 13.4093C64.2434 12.7476 64.255 12.086 64.2663 11.4244C64.2683 11.3053 64.2703 11.1861 64.2722 11.067C64.2726 11.0417 64.2726 11.0417 64.273 11.0159C64.2736 10.982 64.2741 10.9481 64.2747 10.9141C64.2797 10.6053 64.2851 10.2965 64.2909 9.98766C64.2941 9.81832 64.2966 9.64899 64.2985 9.47963C64.2996 9.38305 64.3011 9.28648 64.3026 9.18991C64.3032 9.14643 64.3037 9.10294 64.3039 9.05946C64.3064 8.65943 64.3064 8.65943 64.4213 8.49795C64.5259 8.40094 64.6058 8.37269 64.7481 8.37116Z" fill="white"/>
<path d="M37.7839 8.39681C37.8392 8.39694 37.8945 8.39681 37.9498 8.39666C38.5348 8.39626 38.5348 8.39626 38.7333 8.57143C38.8517 8.73045 38.9312 8.9104 39.0085 9.09079C39.0198 9.11679 39.0311 9.14279 39.0428 9.16958C39.0796 9.25431 39.1162 9.33914 39.1527 9.42398C39.1786 9.48359 39.2044 9.54319 39.2303 9.60278C39.2956 9.75318 39.3607 9.90367 39.4257 10.0542C39.4799 10.1797 39.5343 10.3051 39.5887 10.4306C39.6471 10.5654 39.7056 10.7002 39.7639 10.8351C39.9056 11.1625 40.0482 11.4895 40.1911 11.8163C40.3634 12.2102 40.5348 12.6044 40.7054 12.9989C40.821 13.2662 40.9371 13.5331 41.0542 13.7997C41.0741 13.8449 41.0939 13.89 41.1137 13.9352C41.1776 14.0808 41.2416 14.2265 41.3058 14.372C41.6629 15.1837 41.6629 15.1837 41.5987 15.3796C41.5563 15.4677 41.5318 15.4965 41.4479 15.551C41.3757 15.5577 41.3757 15.5577 41.2867 15.5585C41.2705 15.5587 41.2543 15.5589 41.2375 15.5591C41.1839 15.5597 41.1302 15.56 41.0766 15.5601C41.0392 15.5603 41.0019 15.5606 40.9645 15.5608C40.8862 15.5612 40.8079 15.5614 40.7296 15.5614C40.6294 15.5616 40.5292 15.5625 40.429 15.5636C40.3518 15.5643 40.2747 15.5645 40.1975 15.5645C40.1606 15.5647 40.1236 15.565 40.0867 15.5655C40.0349 15.5661 39.9833 15.566 39.9315 15.5657C39.9021 15.5658 39.8727 15.566 39.8424 15.5661C39.7638 15.551 39.7638 15.551 39.6382 15.4286C39.5552 15.2265 39.4723 15.0245 39.3868 14.8163C37.8689 14.8042 37.8689 14.8042 36.3203 14.7918C36.312 14.8322 36.3037 14.8727 36.2952 14.9143C36.2603 15.002 36.2185 15.0864 36.1774 15.1714C36.1668 15.1944 36.1561 15.2173 36.1452 15.241C36.1345 15.2632 36.1237 15.2855 36.1127 15.3084C36.1031 15.3285 36.0935 15.3487 36.0836 15.3694C36.0322 15.4459 35.9723 15.5029 35.893 15.551C35.808 15.5666 35.808 15.5666 35.7141 15.5669C35.6882 15.5672 35.6882 15.5672 35.6619 15.5675C35.6053 15.5681 35.5489 15.5677 35.4923 15.5673C35.4528 15.5674 35.4133 15.5675 35.3738 15.5676C35.2913 15.5678 35.2087 15.5676 35.1261 15.567C35.0204 15.5663 34.9147 15.5667 34.809 15.5674C34.7275 15.5679 34.646 15.5677 34.5645 15.5674C34.5255 15.5673 34.4866 15.5674 34.4476 15.5677C34.3931 15.568 34.3386 15.5675 34.2841 15.5669C34.2532 15.5668 34.2222 15.5667 34.1903 15.5666C34.0861 15.5468 34.0494 15.507 33.9828 15.4286C33.9163 15.3249 33.9158 15.2292 33.9325 15.1102C33.963 15.0136 34.0056 14.9234 34.0487 14.8316C34.0691 14.7869 34.0894 14.7422 34.1097 14.6974C34.125 14.6639 34.1403 14.6303 34.1556 14.5968C34.2608 14.3672 34.3621 14.1361 34.464 13.9051C34.5241 13.769 34.5844 13.6329 34.6447 13.4968C34.6689 13.4423 34.693 13.3878 34.7171 13.3333C34.7405 13.2807 34.7638 13.2281 34.7871 13.1755C34.7978 13.1513 34.8086 13.127 34.8197 13.102C34.9388 12.8332 35.0579 12.5644 35.177 12.2956C35.2759 12.0726 35.3747 11.8497 35.4735 11.6267C35.5233 11.5144 35.573 11.4021 35.6228 11.2898C35.6427 11.2449 35.6626 11.2 35.6825 11.1551C35.8019 10.8857 35.8019 10.8857 35.8318 10.8184C35.8517 10.7734 35.8716 10.7285 35.8915 10.6836C35.9409 10.572 35.9904 10.4604 36.0399 10.3489C36.133 10.1387 36.2261 9.92852 36.319 9.71822C36.3628 9.61901 36.4066 9.51982 36.4505 9.42064C36.4713 9.3734 36.4922 9.32616 36.513 9.27891C36.5419 9.21334 36.5709 9.14781 36.5999 9.08227C36.6083 9.06314 36.6167 9.044 36.6253 9.02429C36.8314 8.55936 36.8314 8.55936 37.0979 8.45204C37.3204 8.38684 37.554 8.39616 37.7839 8.39681ZM37.8787 11.2653C37.8067 11.426 37.7348 11.5868 37.663 11.7476C37.6296 11.8224 37.5962 11.8971 37.5628 11.9718C37.524 12.0583 37.4853 12.1449 37.4467 12.2315C37.4351 12.2574 37.4235 12.2832 37.4115 12.3099C37.302 12.5558 37.2019 12.8038 37.0995 13.0531C37.6138 13.0531 38.128 13.0531 38.6579 13.0531C38.5012 12.6715 38.3439 12.2906 38.1819 11.9112C38.1631 11.8671 38.1443 11.823 38.1255 11.7788C38.1074 11.7364 38.0893 11.694 38.0712 11.6516C38.059 11.6229 38.059 11.6229 38.0465 11.5935C37.9996 11.4838 37.9521 11.3744 37.9038 11.2653C37.8955 11.2653 37.8872 11.2653 37.8787 11.2653Z" fill="white"/>
<path d="M19.3165 7.26092C19.336 7.27446 19.3555 7.28801 19.3756 7.30196C19.7095 7.53976 20.0235 7.81658 20.2742 8.13802C20.2822 8.14811 20.2902 8.15819 20.2984 8.16858C20.7237 8.70761 21.0304 9.33005 21.1697 9.99721C21.1736 10.0154 21.1774 10.0336 21.1813 10.0524C21.2366 10.3322 21.2585 10.6074 21.2571 10.8918C21.2571 10.9072 21.2571 10.9227 21.257 10.9386C21.2523 12.0437 20.8289 13.0848 20.064 13.8999C20.0334 13.933 20.0045 13.9664 19.9761 14.0013C19.9258 14.0579 19.8715 14.1047 19.8132 14.1533C19.7186 14.2303 19.7186 14.2303 19.6613 14.3337C19.6175 14.3633 19.5741 14.3902 19.5284 14.4166C19.5002 14.4332 19.4721 14.4499 19.444 14.4667C19.4293 14.4755 19.4146 14.4842 19.3995 14.4932C19.3264 14.5376 19.255 14.5843 19.1836 14.6312C19.0764 14.7012 18.9689 14.7707 18.8604 14.8388C18.711 14.9325 18.5624 15.0273 18.4138 15.1222C18.2455 15.2297 18.0772 15.3371 17.9086 15.4441C17.7436 15.5489 17.5788 15.6539 17.4141 15.759C17.0645 15.9823 16.7147 16.2052 16.3645 16.4275C16.203 16.5301 16.0418 16.6331 15.8806 16.736C15.7091 16.8456 15.5374 16.9548 15.3656 17.0639C15.217 17.1582 15.0687 17.2529 14.9204 17.3476C14.7355 17.4657 14.5504 17.5836 14.3652 17.7012C14.0389 17.9084 13.713 18.1163 13.3872 18.3244C13.2154 18.4341 13.0434 18.5435 12.8714 18.6528C12.7338 18.7401 12.5964 18.8277 12.4589 18.9152C12.3038 19.0141 12.1486 19.1129 11.9932 19.2115C11.8139 19.3254 11.6348 19.4396 11.4557 19.554C11.3018 19.6523 11.1478 19.7504 10.9936 19.8483C10.8398 19.946 10.686 20.0437 10.5324 20.1417C10.5087 20.1567 10.4851 20.1718 10.4614 20.1869C10.3343 20.2677 10.2077 20.3492 10.0823 20.4324C10.0609 20.4466 10.0395 20.4607 10.0181 20.4749C9.97804 20.5014 9.93812 20.5281 9.89833 20.5549C9.88064 20.5666 9.86294 20.5783 9.84471 20.5904C9.82929 20.6008 9.81387 20.6111 9.79797 20.6218C9.7848 20.6283 9.77163 20.6347 9.75806 20.6414C9.7391 20.6353 9.72014 20.6291 9.7006 20.6228C9.71408 20.6042 9.72756 20.5856 9.74145 20.5665C9.8945 20.3555 10.0467 20.144 10.1986 19.9323C10.3353 19.7419 10.4721 19.5516 10.6097 19.3618C10.6837 19.2598 10.7573 19.1575 10.8308 19.0552C10.9135 18.9399 10.9964 18.8248 11.0798 18.7099C11.2081 18.5331 11.3355 18.3556 11.4629 18.1781C11.5996 17.9876 11.7364 17.7973 11.8741 17.6075C11.993 17.4435 12.111 17.2789 12.2291 17.1144C12.3658 16.9239 12.5026 16.7336 12.6403 16.5438C12.7592 16.3798 12.8772 16.2152 12.9953 16.0506C13.132 15.8602 13.2688 15.6698 13.4065 15.4801C13.5021 15.3482 13.5971 15.2159 13.6921 15.0835C13.7405 15.0161 13.7889 14.9488 13.8374 14.8816C13.8559 14.8559 13.8559 14.8559 13.8748 14.8297C13.8986 14.7967 13.9224 14.7637 13.9463 14.7307C13.9622 14.7085 13.9622 14.7085 13.9786 14.6858C13.9927 14.6662 13.9927 14.6662 14.0071 14.6462C14.0306 14.6138 14.0306 14.6138 14.0488 14.5763C13.5493 14.8956 13.0518 15.2175 12.5572 15.544C12.4419 15.6202 12.326 15.6956 12.2099 15.7707C11.9338 15.9496 11.6577 16.1285 11.383 16.3094C11.3664 16.3203 11.3498 16.3312 11.3328 16.3425C11.2988 16.3649 11.2648 16.3872 11.2309 16.4096C10.9155 16.6174 10.5987 16.8229 10.2805 17.0265C9.92468 17.2542 9.5717 17.4858 9.2192 17.7183C9.11624 17.7861 9.01294 17.8535 8.90942 17.9205C8.8132 17.9829 8.71741 18.0459 8.6217 18.109C8.2466 18.3564 7.87032 18.6017 7.49173 18.844C7.1532 19.0606 6.81724 19.2808 6.48253 19.5031C6.47305 19.4754 6.47305 19.4754 6.46338 19.4471C6.48011 19.4152 6.48011 19.4152 6.50723 19.3799C6.52224 19.3601 6.52224 19.3601 6.53756 19.3398C6.54864 19.3256 6.55972 19.3113 6.57113 19.2966C6.59435 19.266 6.61757 19.2354 6.64079 19.2048C6.65275 19.1892 6.66471 19.1736 6.67703 19.1575C6.7306 19.0873 6.78319 19.0165 6.83571 18.9455C6.85101 18.9249 6.85101 18.9249 6.86662 18.9039C6.95549 18.784 7.04247 18.6627 7.12931 18.5414C7.21415 18.423 7.3005 18.3057 7.38754 18.1889C7.46662 18.0826 7.54447 17.9755 7.62194 17.8681C7.69101 17.7725 7.76122 17.6778 7.83177 17.5832C7.91774 17.468 8.00118 17.3513 8.08319 17.2333C8.17046 17.1078 8.26109 16.9856 8.35518 16.8649C8.43532 16.7619 8.5108 16.6564 8.58575 16.5497C8.71912 16.3611 8.85664 16.1752 8.99457 15.9897C9.10353 15.8429 9.21059 15.6949 9.3175 15.5468C9.44497 15.3701 9.5733 15.1941 9.70332 15.0192C9.81228 14.8725 9.91933 14.7245 10.0262 14.5763C10.1426 14.4151 10.2594 14.2542 10.3782 14.0946C10.4664 13.9761 10.5533 13.8567 10.6392 13.7366C10.7352 13.6024 10.8326 13.4693 10.9312 13.3369C11.0015 13.2425 11.0708 13.1474 11.1396 13.0519C11.2453 12.9054 11.3536 12.7608 11.4629 12.6169C11.2709 12.7061 11.0868 12.8063 10.9027 12.9098C10.7875 12.9744 10.6715 13.0377 10.5554 13.1009C10.4011 13.1849 10.2471 13.2692 10.0933 13.354C9.9395 13.4388 9.78543 13.5231 9.63116 13.6071C9.48545 13.6864 9.34014 13.7664 9.19538 13.8474C9.02003 13.9454 8.84334 14.0411 8.66646 14.1365C8.518 14.2167 8.37031 14.2981 8.2231 14.3805C8.07042 14.4658 7.91685 14.5495 7.76315 14.6331C7.6768 14.68 7.59053 14.7271 7.50494 14.7754C7.49232 14.7825 7.4797 14.7896 7.4667 14.7969C7.43473 14.815 7.40283 14.8332 7.37093 14.8515C7.32536 14.8749 7.32536 14.8749 7.28705 14.8749C7.28705 14.8376 7.28705 14.8376 7.32746 14.7969C7.33623 14.7887 7.34501 14.7805 7.35406 14.772C7.40673 14.7213 7.45423 14.666 7.50255 14.6113C7.51355 14.5989 7.52455 14.5865 7.53588 14.5738C7.61173 14.488 7.68561 14.4008 7.75875 14.3127C7.82483 14.2348 7.89318 14.1589 7.96137 14.0827C8.02193 14.0149 8.08139 13.9464 8.13945 13.8765C8.20794 13.7941 8.27864 13.7138 8.35016 13.6339C8.43631 13.5377 8.52045 13.4402 8.60299 13.341C8.6735 13.2573 8.7462 13.1756 8.81864 13.0935C8.87391 13.0309 8.92878 12.968 8.98348 12.9049C8.99209 12.895 9.00071 12.8851 9.00958 12.8749C9.02693 12.8548 9.04427 12.8348 9.0616 12.8148C9.10536 12.7644 9.14918 12.7139 9.19299 12.6635C9.21055 12.6433 9.22811 12.6231 9.24566 12.6029C9.56172 12.239 9.56172 12.239 9.58807 12.2086C9.6056 12.1884 9.62313 12.1683 9.64066 12.1481C9.68498 12.097 9.72934 12.046 9.77378 11.995C9.85481 11.9021 9.93541 11.8089 10.0143 11.7141C10.0941 11.6185 10.1769 11.5256 10.26 11.4327C10.3205 11.3649 10.38 11.2964 10.4381 11.2266C10.517 11.1316 10.599 11.0396 10.6814 10.9475C10.742 10.8797 10.8014 10.8112 10.8595 10.7413C10.928 10.6589 10.9987 10.5787 11.0702 10.4987C11.1563 10.4025 11.2405 10.305 11.323 10.2058C11.3935 10.1221 11.4662 10.0404 11.5387 9.95835C11.5939 9.89575 11.6488 9.83283 11.7035 9.76977C11.7164 9.75487 11.7164 9.75487 11.7296 9.73967C11.747 9.71967 11.7643 9.69966 11.7816 9.67966C11.8254 9.62918 11.8692 9.57876 11.913 9.52833C11.9306 9.50811 11.9481 9.4879 11.9657 9.46768C12.071 9.34638 12.071 9.34638 12.0974 9.31604C12.1149 9.29586 12.1325 9.27567 12.15 9.25548C12.1943 9.20443 12.2387 9.15341 12.2831 9.10246C12.3641 9.00947 12.4447 8.91628 12.5236 8.82151C12.6034 8.72592 12.6862 8.63304 12.7693 8.54018C12.8302 8.47192 12.8901 8.40306 12.9486 8.33281C13.1166 8.13109 13.2917 7.93554 13.4742 7.74613C13.4918 7.7278 13.4918 7.7278 13.5097 7.70909C13.605 7.61294 13.7116 7.53045 13.819 7.44754C13.8386 7.43226 13.8582 7.41699 13.8784 7.40125C15.3029 6.30455 17.2763 6.16956 19.3165 7.26092Z" fill="white"/>
<path d="M16.6681 2.96569C16.6916 2.97243 16.6916 2.97243 16.7156 2.9793C17.3203 3.15758 17.7438 3.5266 18.1819 3.95343C18.2086 3.97944 18.2354 4.00544 18.2621 4.03144C18.3351 4.10233 18.408 4.17328 18.4809 4.24424C18.5597 4.32098 18.6386 4.39767 18.7175 4.47436C18.8897 4.64177 19.0618 4.80924 19.2339 4.97673C19.3415 5.08141 19.449 5.18607 19.5566 5.29074C19.8547 5.58083 20.1529 5.87095 20.451 6.16113C20.4702 6.17986 20.4894 6.19859 20.5087 6.21731C20.5279 6.23608 20.5472 6.25485 20.5665 6.27362C20.6052 6.31127 20.6438 6.34892 20.6825 6.38657C20.6921 6.3959 20.7017 6.40524 20.7116 6.41486C21.0226 6.71762 21.3337 7.02028 21.6449 7.32287C21.9745 7.64332 22.3039 7.96388 22.6333 8.28456C22.8126 8.45915 22.992 8.63371 23.1714 8.80814C23.3242 8.95662 23.4769 9.1052 23.6295 9.2539C23.7072 9.32969 23.785 9.40544 23.863 9.48106C23.9344 9.55042 24.0058 9.61991 24.077 9.6895C24.1027 9.71452 24.1284 9.7395 24.1541 9.76442C24.5759 10.1726 24.8692 10.6234 25.0164 11.1878C25.0202 11.2009 25.0239 11.2139 25.0277 11.2274C25.0697 11.3951 25.0631 11.5697 25.063 11.7412C25.063 11.7668 25.063 11.7668 25.063 11.7929C25.0624 12.0539 25.0484 12.2974 24.9591 12.5458C24.9535 12.5617 24.9479 12.5777 24.9421 12.5941C24.7571 13.1048 24.4271 13.4759 24.0399 13.8528C24.0127 13.8794 23.9855 13.906 23.9583 13.9325C23.8839 14.0051 23.8095 14.0777 23.735 14.1502C23.6546 14.2286 23.5742 14.3071 23.4938 14.3855C23.3091 14.5658 23.1243 14.7459 22.9394 14.9261C22.848 15.0152 22.7565 15.1043 22.6651 15.1935C22.3517 15.4989 22.0383 15.8044 21.7249 16.1098C21.7052 16.1289 21.6856 16.148 21.6659 16.1672C21.6513 16.1814 21.6513 16.1814 21.6364 16.1959C21.587 16.244 21.5377 16.2921 21.4883 16.3402C21.4785 16.3497 21.4687 16.3593 21.4586 16.3691C21.1411 16.6785 20.8237 16.988 20.5063 17.2976C20.1703 17.6254 19.8342 17.9531 19.498 18.2806C19.461 18.3166 19.424 18.3525 19.3871 18.3885C19.378 18.3974 19.3689 18.4063 19.3595 18.4154C19.2135 18.5576 19.0677 18.6999 18.9218 18.8423C18.7751 18.9855 18.6283 19.1286 18.4813 19.2716C18.4018 19.3489 18.3223 19.4264 18.243 19.5039C18.1703 19.5751 18.0973 19.6461 18.0243 19.7169C17.998 19.7424 17.9719 19.768 17.9457 19.7937C17.4282 20.3017 16.7697 20.6351 16.0224 20.6412C15.3576 20.6406 14.7265 20.4603 14.2228 20.0238C14.2102 20.0132 14.1976 20.0026 14.1846 19.9917C14.0041 19.8376 13.8378 19.6688 13.6688 19.503C13.6048 19.4401 13.5407 19.3774 13.4766 19.3146C13.4619 19.3002 13.4473 19.2858 13.4321 19.2709C13.4186 19.2577 13.4051 19.2444 13.3911 19.2308C13.3792 19.2191 13.3673 19.2074 13.3551 19.1954C13.3259 19.1664 13.3259 19.1664 13.2867 19.1495C13.3122 19.0752 13.3462 19.0629 13.4135 19.0208C13.4245 19.0138 13.4356 19.0068 13.447 18.9995C13.4834 18.9765 13.52 18.9538 13.5566 18.931C13.582 18.915 13.6074 18.8989 13.6328 18.8829C13.6842 18.8505 13.7357 18.8182 13.7872 18.7859C13.8861 18.7239 13.9846 18.6611 14.0831 18.5984C14.1188 18.5758 14.1544 18.5532 14.1901 18.5306C14.4977 18.3353 14.8048 18.1394 15.1119 17.9434C15.2833 17.834 15.4549 17.7248 15.6266 17.6158C15.9521 17.4093 16.2771 17.202 16.6021 16.9946C16.772 16.8862 16.9422 16.7779 17.1124 16.6699C17.2606 16.5759 17.4085 16.4815 17.5564 16.3871C17.7407 16.2695 17.9252 16.152 18.1098 16.0348C18.247 15.9478 18.3841 15.8605 18.5212 15.7732C18.6795 15.6724 18.8379 15.5716 18.9964 15.471C19.0143 15.4596 19.0323 15.4482 19.0507 15.4364C19.154 15.3709 19.2574 15.3054 19.3608 15.2401C19.4085 15.21 19.456 15.1798 19.5035 15.1495C19.5578 15.115 19.6124 15.0813 19.6677 15.0483C19.8938 14.9115 20.076 14.7324 20.2492 14.5365C20.32 14.4568 20.397 14.3841 20.4745 14.3107C20.6137 14.177 20.736 14.0382 20.8518 13.8851C20.871 13.8611 20.871 13.8611 20.8905 13.8366C21.395 13.1909 21.6771 12.4004 21.7497 11.5971C21.751 11.5835 21.7523 11.5699 21.7537 11.5558C21.8113 10.936 21.7945 10.2691 21.6542 9.66245C21.6508 9.64757 21.6473 9.63268 21.6438 9.61735C21.4286 8.70598 20.9157 7.97798 20.2478 7.32245C20.221 7.29613 20.1943 7.26972 20.1675 7.24332C20.0514 7.13007 19.93 7.02716 19.8011 6.92794C19.7804 6.91155 19.7597 6.89516 19.739 6.87875C18.9638 6.28365 17.9967 5.95946 17.0111 5.95685C16.9975 5.9568 16.9839 5.95675 16.9699 5.95669C16.8977 5.95642 16.8255 5.95624 16.7532 5.95616C16.6945 5.95608 16.6358 5.95582 16.5771 5.9554C16.2341 5.95296 15.8992 5.95859 15.5601 6.01644C15.5375 6.02014 15.5149 6.02384 15.4917 6.02765C15.4401 6.03678 15.3891 6.04701 15.338 6.05829C15.3201 6.06218 15.3023 6.06607 15.2839 6.07008C14.5644 6.23295 13.8773 6.58265 13.3347 7.07116C13.296 7.10575 13.2566 7.13919 13.2167 7.17253C13.1209 7.25398 13.0314 7.34128 12.9417 7.42904C12.9253 7.44495 12.9089 7.46086 12.8919 7.47725C12.7967 7.57015 12.7053 7.66493 12.6181 7.76504C12.6091 7.77524 12.6001 7.78545 12.5909 7.79596C12.5656 7.82471 12.5405 7.85356 12.5154 7.88246C12.5064 7.89281 12.4974 7.90316 12.4882 7.91382C12.4325 7.97805 12.3776 8.0428 12.3232 8.10801C12.2389 8.2088 12.1521 8.30734 12.0651 8.40587C11.9461 8.54053 11.828 8.67577 11.7131 8.81373C11.6343 8.90799 11.5528 8.99976 11.4709 9.09143C11.3392 9.23884 11.2091 9.38747 11.0826 9.53921C11.003 9.6345 10.9205 9.72708 10.8376 9.81965C10.7627 9.90358 10.6899 9.98898 10.618 10.0754C10.5476 10.1588 10.4751 10.2403 10.4029 10.322C10.3478 10.3844 10.2931 10.4471 10.2385 10.51C10.2299 10.5199 10.2213 10.5298 10.2125 10.54C10.1952 10.56 10.1779 10.5799 10.1606 10.5998C10.1169 10.6501 10.0732 10.7004 10.0296 10.7507C10.012 10.7708 9.99453 10.791 9.97702 10.8111C9.6618 11.1739 9.6618 11.1739 9.63553 11.2041C9.61804 11.2242 9.60056 11.2444 9.58309 11.2645C9.53888 11.3154 9.49464 11.3662 9.45032 11.417C9.3695 11.5097 9.28912 11.6026 9.21048 11.6971C9.13087 11.7924 9.04832 11.885 8.96542 11.9775C8.90502 12.0451 8.84572 12.1134 8.78781 12.183C8.70912 12.2777 8.62731 12.3694 8.54513 12.4612C8.48473 12.5288 8.42544 12.597 8.36753 12.6667C8.29922 12.7489 8.22872 12.8289 8.15738 12.9085C8.08569 12.9886 8.0148 13.069 7.94605 13.1515C7.87826 13.2327 7.80992 13.3133 7.74068 13.3933C7.73105 13.4047 7.72142 13.416 7.7115 13.4276C7.6644 13.4817 7.62514 13.5257 7.55562 13.5503C7.07142 13.076 6.84038 12.4122 6.82251 11.754C6.84015 11.0538 7.11138 10.4315 7.60237 9.92256C7.61984 9.90441 7.61984 9.90441 7.63766 9.88589C7.76203 9.75724 7.88981 9.63202 8.01819 9.50718C8.04443 9.48158 8.07067 9.45599 8.09691 9.43039C8.16817 9.36089 8.23949 9.29144 8.31082 9.222C8.38807 9.14679 8.46526 9.07153 8.54245 8.99627C8.69333 8.8492 8.84426 8.70219 8.99521 8.55519C9.11792 8.43569 9.24061 8.31618 9.3633 8.19666C9.65503 7.91245 9.94678 7.62825 10.2386 7.34411C10.2479 7.33505 10.2572 7.32598 10.2668 7.31665C10.314 7.27072 10.3611 7.2248 10.4083 7.17887C10.4177 7.16975 10.427 7.16063 10.4367 7.15124C10.4556 7.1328 10.4745 7.11435 10.4935 7.09591C10.7884 6.80871 11.0833 6.52143 11.3782 6.2341C11.71 5.91069 12.0419 5.58734 12.3739 5.26409C12.5494 5.09313 12.725 4.92215 12.9005 4.75109C13.0497 4.60556 13.1991 4.4601 13.3485 4.31472C13.4247 4.24061 13.5008 4.16646 13.5769 4.09223C13.6466 4.0242 13.7164 3.95626 13.7863 3.88839C13.8115 3.8639 13.8366 3.83939 13.8617 3.81484C14.0015 3.67815 14.1425 3.54914 14.2992 3.43074C14.3165 3.41772 14.3337 3.4047 14.3514 3.39128C14.9876 2.91731 15.8954 2.74053 16.6681 2.96569Z" fill="#DA2220"/>
</svg>
